<?xml version="1.0" encoding="UTF-8"?> <svg xmlns="http://www.w3.org/2000/svg" width="147" height="39" viewBox="0 0 147 39" fill="none"><path d="M55.4998 19.1186C55.4998 22.9172 53.6824 24.9388 49.4934 24.9388C48.1719 24.9388 46.9962 24.7324 45.8182 24.3397V28.4479H44.1265V13.3815H45.5512L45.7576 15.4255C46.9333 13.8571 48.4411 13.175 50.5255 13.175C53.808 13.175 55.4998 15.2594 55.4998 19.1209V19.1186ZM53.7654 19.0782C53.7654 16.3117 52.7131 14.703 50.0902 14.703C48.109 14.703 46.7471 15.6521 45.8182 17.2833V22.8364C47.0769 23.2695 48.4613 23.4355 49.5742 23.4355C52.4237 23.4355 53.7632 21.9075 53.7632 19.0805L53.7654 19.0782Z" fill="#181A29"></path><path d="M66.0878 14.8062H64.0864C62.1456 14.8062 60.9071 15.6318 60.0209 17.3236V24.7345H58.3291V13.3814H59.7539L59.9805 15.4052C61.053 13.8975 62.4373 13.2782 64.3557 13.2782H65.8612L66.0878 14.8062Z" fill="#181A29"></path><path d="M77.8741 19.6975H68.5246C68.7512 22.1544 70.2164 23.2471 72.7562 23.2471H76.9878L76.7612 24.7324H72.7562C68.9172 24.7324 66.77 22.8948 66.77 19.0558C66.77 15.2169 68.7714 13.1729 72.4264 13.1729C76.0814 13.1729 77.8763 14.7838 77.8763 18.7866V19.6953L77.8741 19.6975ZM76.1622 18.3154C76.1622 15.6948 74.8608 14.6402 72.4264 14.6402C69.992 14.6402 68.7108 15.7127 68.5246 18.3154H76.1622Z" fill="#181A29"></path><path d="M91.8274 13.3815L87.6586 24.7346H83.0545L78.8857 13.3815H82.2513L85.204 22.0713H85.5338L88.5269 13.3815H91.8297H91.8274Z" fill="#181A29"></path><path d="M92.8823 10.3255C92.8823 9.27324 93.5016 8.63379 94.8231 8.63379C96.1447 8.63379 96.7639 9.27324 96.7639 10.3255C96.7639 11.3778 96.1447 12.0397 94.8231 12.0397C93.5016 12.0397 92.8823 11.4003 92.8823 10.3255ZM93.2525 13.3815H96.3892V24.7346H93.2525V13.3815Z" fill="#181A29"></path><path d="M98.4331 22.1118H105.099C105.739 22.1118 106.172 21.865 106.172 21.3265C106.172 20.7476 105.779 20.5412 104.913 20.438L102.209 20.0879C99.9386 19.7985 98.5969 18.7664 98.5969 16.6416C98.5969 14.5168 100.062 13.3793 102.746 13.3793H108.173L108.503 15.9999H102.64C101.958 15.9999 101.608 16.2063 101.608 16.6596C101.608 17.1554 101.938 17.382 102.743 17.4852L105.696 17.8577C108.029 18.1471 109.288 19.0962 109.288 21.2636C109.288 23.4311 107.823 24.7324 105.14 24.7324H98.7831L98.4331 22.1118Z" fill="#181A29"></path><path d="M110.798 10.3255C110.798 9.27324 111.417 8.63379 112.739 8.63379C114.06 8.63379 114.679 9.27324 114.679 10.3255C114.679 11.3778 114.06 12.0397 112.739 12.0397C111.417 12.0397 110.798 11.4003 110.798 10.3255ZM111.17 13.3815H114.307V24.7346H111.17V13.3815Z" fill="#181A29"></path><path d="M116.372 19.058C116.372 15.1562 118.456 13.175 122.688 13.175C126.919 13.175 128.983 15.1562 128.983 19.058C128.983 22.9598 126.899 24.941 122.688 24.941C118.476 24.941 116.372 22.9598 116.372 19.058ZM125.784 19.058C125.784 16.9108 124.855 15.9213 122.688 15.9213C120.52 15.9213 119.571 16.9131 119.571 19.058C119.571 21.203 120.52 22.1947 122.688 22.1947C124.855 22.1947 125.784 21.203 125.784 19.058Z" fill="#181A29"></path><path d="M142.484 17.6332V24.7346H139.347V17.9855C139.347 16.5406 138.831 15.9841 137.283 15.9841C135.838 15.9841 134.846 16.747 134.187 17.7185V24.7368H131.05V13.3837H133.65L134.023 14.7882C135.055 13.5901 136.314 13.1772 138.008 13.1772C140.731 13.1772 142.486 14.3754 142.486 17.6355L142.484 17.6332Z" fill="#181A29"></path><path d="M14.8171 10.7697V34.1984H5.53494C4.91568 34.1984 4.41309 33.6958 4.41309 33.0766V12.6634C4.41309 10.1706 5.45641 7.92018 7.13021 6.32715L14.8171 10.7697Z" fill="url(#paint0_linear_34_376)"></path><path d="M24.2947 3.91296V16.2488L14.8173 10.7697L7.13037 6.32719C8.69872 4.83288 10.8257 3.91296 13.1637 3.91296H24.2947Z" fill="url(#paint1_linear_34_376)"></path><path d="M34.6985 5.03482V25.448C34.6985 27.9408 33.6552 30.1912 31.9836 31.7842L24.2944 27.3417V3.91296H33.5766C34.1959 3.91296 34.6985 4.41555 34.6985 5.03482Z" fill="url(#paint2_linear_34_376)"></path><path d="M31.9835 31.7842C30.4129 33.2785 28.2881 34.1984 25.9479 34.1984H14.8169V21.8625L24.2943 27.3417L31.9835 31.7842Z" fill="url(#paint3_linear_34_376)"></path><defs><linearGradient id="paint0_linear_34_376" x1="9.61399" y1="34.1984" x2="9.61399" y2="-3.94228" gradientUnits="userSpaceOnUse"><stop stop-color="#6094FF"></stop><stop offset="0.23" stop-color="#5F90FE"></stop><stop offset="0.42" stop-color="#5D86FC"></stop><stop offset="0.6" stop-color="#5B74F9"></stop><stop offset="0.78" stop-color="#575BF4"></stop><stop offset="0.94" stop-color="#523CEE"></stop><stop offset="1" stop-color="#5130EC"></stop></linearGradient><linearGradient id="paint1_linear_34_376" x1="24.2947" y1="10.0809" x2="-16.9401" y2="10.0809" gradientUnits="userSpaceOnUse"><stop stop-color="#5130EC"></stop><stop offset="0.1" stop-color="#523CEE"></stop><stop offset="0.51" stop-color="#596BF7"></stop><stop offset="0.82" stop-color="#5E88FC"></stop><stop offset="1" stop-color="#6094FF"></stop></linearGradient><linearGradient id="paint2_linear_34_376" x1="29.4953" y1="3.91296" x2="29.4953" y2="40.3956" gradientUnits="userSpaceOnUse"><stop stop-color="#6094FF"></stop><stop offset="0.23" stop-color="#5F90FE"></stop><stop offset="0.42" stop-color="#5D86FC"></stop><stop offset="0.6" stop-color="#5B74F9"></stop><stop offset="0.78" stop-color="#575BF4"></stop><stop offset="0.94" stop-color="#523CEE"></stop><stop offset="1" stop-color="#5130EC"></stop></linearGradient><linearGradient id="paint3_linear_34_376" x1="14.8169" y1="28.0305" x2="64.0752" y2="28.0305" gradientUnits="userSpaceOnUse"><stop stop-color="#5130EC"></stop><stop offset="0.1" stop-color="#523CEE"></stop><stop offset="0.51" stop-color="#596BF7"></stop><stop offset="0.82" stop-color="#5E88FC"></stop><stop offset="1" stop-color="#6094FF"></stop></linearGradient></defs></svg> 